<?xml version="1.0" standalone="no"?>
<!DOCTYPE svg PUBLIC "-//W3C//DTD SVG 20010904//EN"
 "http://www.w3.org/TR/2001/REC-SVG-20010904/DTD/svg10.dtd">
<svg version="1.0" xmlns="http://www.w3.org/2000/svg"
 width="700.000000pt" height="700.000000pt" viewBox="0 0 700.000000 700.000000"
 preserveAspectRatio="xMidYMid meet">
<metadata>
Created by potrace 1.14, written by Peter Selinger 2001-2017
</metadata>
<g transform="translate(0.000000,700.000000) scale(0.100000,-0.100000)"
fill="#000000" stroke="none">
<path d="M4261 4819 l4 -1871 -25 -20 c-23 -18 -35 -20 -135 -16 -112 5 -217
33 -228 61 -7 19 49 1773 57 1786 4 6 34 25 66 41 32 16 61 34 65 40 3 6 -72
151 -167 323 l-173 312 -3 -55 c-2 -30 11 -540 28 -1135 17 -594 30 -1120 28
-1168 l-3 -88 -660 466 c-363 257 -675 482 -694 500 -19 18 -31 39 -29 47 13
33 243 88 373 88 163 0 310 -38 492 -125 51 -25 94 -45 97 -45 2 0 25 26 49
57 l45 56 -75 83 c-200 218 -341 488 -398 762 -24 117 -26 113 75 193 50 39
90 74 90 78 0 4 -93 119 -207 256 l-208 249 -8 -45 c-12 -65 0 -458 18 -574
41 -266 134 -519 276 -748 l49 -79 -52 9 c-29 4 -129 8 -223 7 -154 -1 -179
-4 -260 -28 -49 -15 -132 -47 -183 -72 -52 -25 -100 -43 -108 -40 -39 15
-1067 749 -1115 796 -41 40 -61 70 -74 110 -24 70 -25 162 -2 222 35 90 31 88
722 423 105 50 570 277 1035 503 499 243 862 414 888 418 35 5 42 4 42 -10 0
-10 -53 -119 -119 -244 -146 -281 -156 -299 -144 -287 17 16 261 462 274 500
11 30 11 37 -3 52 -9 9 -29 16 -45 15 -25 -1 -734 -318 -2100 -940 -253 -116
-486 -226 -517 -246 -104 -66 -146 -155 -146 -307 0 -137 35 -217 138 -314 26
-24 268 -209 537 -410 270 -202 494 -371 499 -375 8 -8 -411 -466 -551 -602
-237 -230 -424 -378 -573 -453 -193 -97 -356 -85 -493 36 -178 156 -150 490
65 790 65 90 80 116 43 74 -150 -170 -257 -408 -258 -575 -2 -280 220 -479
493 -440 109 15 214 61 346 151 243 166 381 285 719 621 149 147 275 268 281
268 21 0 252 -248 391 -420 161 -201 323 -462 323 -523 0 -43 -111 -144 -225
-206 -108 -58 -217 -102 -421 -171 -480 -163 -598 -233 -889 -525 -197 -198
-258 -245 -373 -288 -79 -29 -183 -29 -238 0 -148 78 -231 351 -178 585 29
127 102 278 189 392 19 25 31 46 26 46 -20 0 -126 -160 -177 -265 -72 -150
-88 -215 -88 -350 0 -216 76 -388 203 -463 43 -25 54 -27 156 -27 98 0 117 3
178 29 115 48 214 121 367 270 80 77 178 163 218 189 152 101 392 201 667 277
83 22 184 52 225 66 179 61 394 184 465 267 46 52 85 128 85 162 0 74 -106
311 -205 461 -31 47 -54 88 -51 92 4 3 10 2 14 -4 6 -10 428 -329 595 -449 37
-27 70 -59 72 -70 2 -11 9 -216 15 -455 l11 -435 -26 -78 c-32 -100 -64 -162
-136 -268 -146 -213 -344 -382 -597 -508 -114 -58 -135 -62 -127 -28 77 328
105 450 102 453 -2 2 -34 -109 -73 -247 -78 -285 -56 -254 -209 -295 -234 -63
-461 -77 -590 -37 -274 85 -436 361 -436 740 0 68 -4 123 -8 123 -13 0 -19
-156 -10 -270 30 -375 194 -597 495 -672 129 -32 365 -31 514 2 58 13 119 24
135 24 l30 1 6 -105 c13 -227 99 -357 267 -406 88 -26 220 -16 302 22 120 56
263 175 500 413 236 238 290 281 455 364 106 52 214 90 345 120 87 20 125 22
445 23 385 1 424 6 552 64 174 79 328 252 373 419 31 115 32 186 39 1651 l6
1495 67 35 c38 20 73 41 78 46 8 8 -48 128 -182 399 l-193 388 -5 -1979 -5
-1979 -22 -55 c-29 -70 -96 -155 -156 -198 -26 -18 -47 -30 -47 -25 0 4 9 36
20 70 68 219 6 412 -178 550 -78 58 -151 85 -247 90 -244 15 -456 -143 -506
-377 -16 -75 -7 -213 19 -280 12 -30 37 -79 57 -108 22 -34 30 -54 22 -57 -7
-2 -52 -11 -102 -20 -238 -44 -496 -166 -670 -317 -53 -45 -93 -88 -264 -282
-164 -186 -376 -367 -472 -402 -52 -19 -177 -22 -234 -6 -98 28 -167 104 -203
223 -22 73 -37 217 -25 235 4 7 53 29 108 49 401 149 728 435 904 790 64 128
81 209 81 374 0 118 2 133 20 151 11 11 28 20 38 20 18 0 19 -16 25 -227 4
-124 7 -276 7 -337 0 -61 4 -117 8 -124 5 -6 14 219 21 500 7 282 15 515 16
516 2 2 43 -6 92 -19 60 -15 120 -22 188 -23 131 0 191 19 256 84 85 85 81 43
89 960 5 443 8 1112 9 1486 l1 682 58 34 c31 19 56 38 55 43 -5 27 -338 695
-346 695 -6 0 -8 -694 -6 -1871z m-553 -1976 c49 -33 84 -65 87 -77 2 -12 6
-63 9 -114 6 -116 -3 -112 -74 27 -27 53 -65 124 -84 159 -20 34 -32 62 -28
62 4 0 44 -25 90 -57z m1354 -665 c22 -6 59 -29 82 -49 152 -134 91 -382 -105
-429 -185 -45 -355 137 -295 317 44 133 181 202 318 161z"/>
<path d="M4990 6329 c0 -8 20 -480 46 -1049 25 -568 43 -1044 40 -1055 -9 -34
-153 -143 -346 -263 -85 -53 129 18 274 90 43 22 80 37 82 35 3 -2 10 -101 16
-220 7 -119 14 -215 16 -212 2 2 6 104 8 226 2 121 7 225 10 230 2 5 31 25 62
46 31 21 93 74 138 118 95 94 147 188 166 300 13 82 8 112 -28 154 -22 27 -32
31 -75 31 -42 0 -55 -5 -86 -34 l-37 -33 0 -95 c-1 -91 -3 -98 -43 -179 -51
-100 -70 -126 -82 -113 -11 13 47 1284 60 1300 6 7 39 26 75 43 35 17 64 36
64 44 0 12 -341 631 -355 646 -3 2 -5 -2 -5 -10z"/>
<path d="M3112 5809 c-64 -139 -81 -291 -41 -379 22 -50 47 -80 63 -80 11 1
126 151 126 165 0 4 -16 25 -34 46 -40 43 -51 80 -61 193 -11 126 -18 133 -53
55z"/>
<path d="M2148 5479 c-60 -127 -86 -250 -69 -329 18 -85 65 -161 90 -146 6 4
36 43 67 87 l56 81 -30 31 c-44 46 -59 89 -67 197 -11 137 -16 146 -47 79z"/>
<path d="M1611 5299 c-69 -155 -79 -300 -26 -397 15 -28 34 -53 42 -56 9 -4
34 23 73 76 33 45 60 86 60 91 0 5 -16 27 -34 48 -41 45 -52 82 -61 207 -4 50
-11 94 -15 97 -4 2 -22 -27 -39 -66z"/>
<path d="M4692 5274 c-50 -100 -66 -162 -66 -249 0 -69 5 -90 32 -148 19 -41
37 -67 47 -67 14 0 135 151 135 169 0 4 -13 17 -30 29 -34 26 -44 57 -63 205
-8 59 -17 110 -20 113 -3 3 -19 -20 -35 -52z"/>
<path d="M6224 5205 c3 -60 28 -783 57 -1605 28 -822 55 -1504 59 -1515 6 -13
9 21 9 91 1 60 8 290 16 510 9 219 26 710 39 1089 14 380 28 698 31 707 4 9
45 36 91 60 46 24 84 49 84 56 0 13 -350 658 -378 697 -12 18 -13 7 -8 -90z"/>
<path d="M2472 4921 c-28 -10 -75 -37 -103 -61 -51 -43 -52 -43 -95 -32 -78
21 -199 7 -211 -24 -2 -6 58 -75 135 -153 135 -138 139 -141 181 -141 52 0 95
37 109 96 12 50 54 283 56 308 2 27 -11 28 -72 7z"/>
<path d="M3564 4839 c-29 -11 -72 -37 -97 -59 l-45 -40 -61 16 c-56 14 -67 14
-123 -1 -35 -9 -67 -20 -71 -24 -5 -5 51 -70 129 -149 152 -154 180 -170 241
-138 41 21 58 62 77 186 9 58 23 129 31 159 8 30 12 58 9 63 -8 12 -34 9 -90
-13z"/>
<path d="M1250 4313 c-54 -28 -65 -62 -53 -162 8 -65 8 -99 -3 -149 -33 -156
-177 -341 -430 -550 l-39 -32 40 15 c134 53 332 183 441 290 147 145 204 257
212 421 l5 102 -34 36 c-42 45 -88 55 -139 29z"/>
<path d="M5340 3914 c-61 -146 -75 -275 -39 -354 19 -43 55 -90 69 -90 3 0 34
39 69 86 l64 85 -32 30 c-42 38 -57 78 -65 174 -9 104 -16 145 -26 145 -5 0
-22 -34 -40 -76z"/>
<path d="M3527 3838 c-48 -82 -70 -165 -71 -268 -1 -85 2 -101 27 -152 27 -56
45 -72 64 -60 5 4 35 42 67 86 l58 78 -35 37 c-40 41 -51 76 -67 216 -7 55
-13 101 -15 103 -2 2 -15 -16 -28 -40z"/>
<path d="M1997 3190 c-37 -30 -52 -83 -38 -132 10 -32 20 -43 54 -59 67 -30
121 -20 152 28 l16 23 38 -30 c48 -39 101 -49 136 -26 32 21 65 74 65 104 0
59 -56 112 -120 112 -39 0 -69 -15 -96 -47 l-22 -26 -11 22 c-27 50 -127 68
-174 31z"/>
<path d="M4844 2961 c-18 -10 -39 -30 -48 -42 -48 -69 27 -188 112 -175 38 6
92 42 92 62 0 20 4 18 42 -20 58 -58 113 -60 166 -6 53 53 45 135 -18 178 -51
34 -104 26 -149 -24 -21 -23 -36 -33 -39 -25 -20 60 -102 87 -158 52z"/>
<path d="M1610 2887 c-19 -6 -56 -33 -83 -59 l-47 -47 -41 14 c-58 21 -136 18
-189 -6 l-45 -20 51 -44 c28 -25 78 -77 110 -116 99 -121 161 -152 233 -115
37 20 49 50 66 169 8 56 21 127 30 157 8 30 15 61 15 68 0 15 -51 14 -100 -1z"/>
<path d="M3124 2706 c-17 -7 -40 -26 -52 -41 -20 -25 -21 -35 -16 -149 6 -109
4 -127 -16 -178 -52 -138 -232 -358 -384 -471 -37 -28 -63 -53 -57 -55 21 -7
231 111 333 188 202 152 311 294 344 449 17 82 18 168 1 200 -28 55 -99 81
-153 57z"/>
<path d="M926 2521 c-45 -94 -70 -205 -63 -280 5 -57 42 -146 70 -169 16 -14
25 -5 102 96 l47 64 -30 31 c-48 51 -61 88 -68 193 -10 148 -15 153 -58 65z"/>
<path d="M2247 1746 c-45 -17 -63 -29 -103 -74 l-31 -35 -47 18 c-33 13 -62
16 -104 12 -60 -5 -112 -24 -112 -39 0 -14 236 -260 263 -275 51 -29 133 -7
155 41 6 15 19 73 27 130 9 57 22 129 30 160 8 31 15 61 15 66 0 14 -48 11
-93 -4z"/>
<path d="M1100 1498 c-78 -167 -80 -340 -7 -432 13 -16 29 -26 35 -22 16 9
122 162 122 175 0 6 -9 15 -19 21 -38 20 -69 107 -76 212 -4 54 -11 101 -16
104 -5 3 -23 -23 -39 -58z"/>
<path d="M5012 1244 c-42 -83 -64 -175 -64 -264 -1 -79 9 -114 45 -167 28 -41
46 -41 74 0 11 17 38 56 59 85 l37 53 -31 32 c-43 45 -59 88 -67 192 -11 135
-16 142 -53 69z"/>
<path d="M4661 989 c-25 -11 -64 -36 -88 -55 l-42 -35 -54 16 c-41 12 -64 13
-105 5 -45 -8 -86 -23 -101 -36 -6 -5 238 -256 268 -276 41 -28 86 -23 127 15
30 28 36 41 46 102 6 39 21 116 33 173 12 56 19 104 17 107 -11 11 -59 3 -101
-16z"/>
<path d="M3882 841 c-72 -161 -81 -291 -27 -397 17 -32 37 -59 45 -59 8 0 43
38 77 84 l63 85 -29 30 c-43 45 -57 87 -71 214 -7 61 -16 112 -20 112 -4 0
-21 -31 -38 -69z"/>
<path d="M2180 785 c-56 -116 -74 -256 -46 -349 14 -46 54 -116 67 -116 8 0
129 165 129 175 0 4 -13 22 -29 41 -36 41 -47 78 -63 212 -6 56 -15 102 -19
102 -5 0 -22 -29 -39 -65z"/>
</g>
</svg>
