<svg width="1024" height="1024" viewBox="0 0 1024 1024" fill="none" xmlns="http://www.w3.org/2000/svg">
<g clip-path="url(#clip0_1_2)">
<rect width="1024" height="1024" fill="white"/>
<path d="M399.803 787.355C400.499 787.904 400.763 788.695 400.594 789.729" stroke="black" stroke-width="2"/>
<path d="M748.744 477.976C748.934 480.192 748.67 482.302 747.953 484.306" stroke="black" stroke-width="2"/>
<path d="M399.803 787.355C400.499 787.904 400.763 788.695 400.594 789.729L386.605 849.231C386.014 851.805 386.942 852.586 389.39 851.573C437.266 831.971 474.391 800.732 500.766 757.857C507.117 747.539 511.992 735.544 515.389 721.871C516.549 717.25 516.95 712.956 516.591 708.99C516.148 703.947 515.927 701.32 515.927 701.109C515.42 663.403 514.397 626.024 512.857 588.973C512.826 588.173 512.614 587.39 512.236 586.683C511.857 585.976 511.323 585.363 510.673 584.89C478.453 561.3 447.077 537.942 416.546 514.817C416.06 514.437 415.607 513.92 415.185 513.266C414.235 511.726 413.486 511.567 412.938 512.791C412.783 513.166 412.742 513.594 412.82 514.033C412.897 514.472 413.091 514.906 413.381 515.292C426.948 533.269 438.004 553.736 446.55 576.693C448.28 581.313 449.493 585.671 450.19 589.764C450.949 594.111 450.232 598.383 448.037 602.582C442.319 613.491 434.217 622.458 423.73 629.485C401.533 644.36 377.426 655.047 351.41 661.546C324.17 668.34 297.658 677.255 271.874 688.29C245.794 699.452 223.048 715.921 203.636 737.696C194.352 748.12 183.707 756.971 171.701 764.25C158.24 772.437 145.474 777.206 133.405 778.556C107.536 781.426 89.8017 768.249 80.2012 739.025C72.6052 715.9 72.9744 692.901 81.3089 670.028C88.6306 649.962 99.3389 631.943 113.434 615.97C113.717 615.647 114.045 615.389 114.392 615.219C114.738 615.048 115.093 614.97 115.428 614.989C116.588 615.031 116.43 615.664 114.953 616.888C114.425 617.31 113.993 617.722 113.655 618.122C102.62 631.943 93.9267 647.124 87.5756 663.667C75.8229 694.262 77.5848 723.032 92.8612 749.976C99.2334 761.202 108.285 767.532 120.017 768.966C128.731 770.064 138.69 768.059 149.894 762.953C162.829 757.066 174.286 748.784 184.266 738.108C192.158 729.625 200.123 721.238 208.162 712.946C225.591 694.926 245.182 680.758 266.936 670.44C279.512 664.49 293.09 658.835 307.67 653.475C307.754 653.454 318.009 650.131 338.433 643.506C357.677 637.26 376.181 629.242 393.948 619.452C404.498 613.628 413.834 605.652 421.958 595.524C422.509 594.836 422.875 594.021 423.019 593.156C423.163 592.291 423.081 591.406 422.781 590.587C417.928 577.125 411.999 565.246 404.993 554.949C380.792 519.29 352.655 485.604 320.583 453.891C320.048 453.364 319.327 453.067 318.572 453.061C317.818 453.055 317.086 453.341 316.532 453.859C301.086 468.418 285.684 483.715 270.323 499.751C235.845 535.748 199.511 566.143 161.32 590.935C154.779 595.176 147.183 598.753 138.532 601.664C129.712 604.661 121.557 606.275 114.067 606.507C100.942 606.929 89.137 603.901 78.6503 597.423C65.8637 589.532 57.0545 578.159 52.2226 563.305C47.4962 548.788 47.7283 533.469 52.9189 517.349C60.5993 493.485 72.9217 472.332 89.8861 453.891C90.0378 453.725 90.2235 453.603 90.4057 453.55C90.5879 453.497 90.7529 453.517 90.8672 453.606C91.0782 453.796 90.9938 454.133 90.614 454.619C79.9585 468.059 71.2126 481.711 64.3762 495.574C58.4682 507.537 55.05 520.662 54.1216 534.946C52.2015 564.381 63.7959 584.362 88.9049 594.891C97.0495 598.31 106.038 599.459 115.871 598.341C123.277 597.497 131.654 594.775 141.001 590.175C153.682 583.951 165.582 576.503 176.702 567.831C182.357 563.442 192.886 554.242 208.289 540.232C227.426 522.866 245.667 504.562 263.012 485.319C277.76 468.924 292.815 452.815 308.176 436.99C308.316 436.845 308.423 436.673 308.491 436.484C308.56 436.295 308.587 436.094 308.572 435.894C308.557 435.694 308.5 435.499 308.405 435.322C308.309 435.145 308.177 434.991 308.018 434.869C264.299 401.51 220.316 368.488 176.069 335.804C159.885 323.862 149.662 314.673 145.4 308.237C137.467 296.21 134.207 282.116 135.62 265.953C136.739 253.145 141.317 242.69 149.356 234.588C153.745 230.178 163.082 224.713 177.367 218.193C295.78 164.156 414.309 110.404 532.954 56.9363C536.879 55.1639 540.086 54.4887 542.576 54.9107C546.543 55.607 548.41 58.0652 548.178 62.2852C548.051 64.3108 547.155 66.8639 545.488 69.9445C532.933 93.0068 520.199 115.964 507.286 138.815C507.16 139.026 507.012 139.205 506.843 139.353C505.619 140.387 505.451 140.049 506.337 138.34C518.955 114.054 531.604 89.789 544.285 65.5451C547.492 59.405 545.973 57.0946 539.728 58.6138C534.98 59.7743 530.401 61.4306 525.991 63.5828C410.511 119.857 294.978 176.035 179.392 232.119C168.969 237.183 162.006 241.741 158.503 245.792C152.574 252.607 149.62 260.899 149.641 270.669C149.662 281.514 152.711 291.125 158.788 299.502C162.227 304.228 169.56 310.537 180.785 318.429C228.745 352.189 277.243 386.381 326.28 421.006C326.899 421.447 327.633 421.696 328.393 421.724C329.152 421.753 329.903 421.558 330.553 421.165C365.684 400.086 404.118 393.861 445.854 402.491C447.373 402.807 447.7 402.322 446.835 401.035C413.961 352.146 397.334 298.668 396.954 240.601C396.849 224.523 396.954 208.941 397.271 193.854C397.334 191.09 398.252 190.763 400.024 192.873L459.21 263.769C459.362 263.948 459.477 264.155 459.547 264.38C459.616 264.604 459.64 264.84 459.617 265.073C459.593 265.307 459.522 265.533 459.409 265.739C459.296 265.944 459.142 266.125 458.957 266.269L433.383 286.367C433 286.665 432.702 287.051 432.518 287.485C432.335 287.918 432.273 288.385 432.339 288.836C440.463 342.978 464.2 388.85 503.552 426.45C503.881 426.751 504.086 427.162 504.127 427.602C504.168 428.042 504.042 428.478 503.773 428.824L491.683 444.332C491.408 444.676 491.013 444.907 490.572 444.982C490.13 445.058 489.671 444.973 489.277 444.744C476.28 437.401 462.702 431.377 448.544 426.672C416.113 415.868 383.524 417.367 350.777 431.166C350.42 431.316 350.104 431.551 349.857 431.85C349.609 432.148 349.438 432.502 349.357 432.882C349.276 433.261 349.289 433.654 349.392 434.028C349.496 434.401 349.689 434.744 349.954 435.027C351.494 436.631 353.109 438.382 354.797 440.281C356.421 442.117 358.173 443.689 360.05 444.997C424.005 490.067 487.885 535.242 551.691 580.522C552.577 581.155 553.073 580.923 553.179 579.826C553.495 576.197 553.495 569.149 553.179 558.684C549.929 447.909 546.754 336.648 543.652 224.903C543.568 222.033 544.222 221.854 545.614 224.365L595.147 313.555C595.315 313.862 595.415 314.202 595.441 314.556C595.467 314.91 595.418 315.27 595.297 315.615C595.176 315.96 594.986 316.283 594.737 316.566C594.488 316.848 594.186 317.083 593.849 317.258L575.84 326.784C575.445 326.994 575.111 327.328 574.872 327.75C574.633 328.173 574.497 328.669 574.479 329.19L566.567 587.042C566.537 587.85 566.746 588.651 567.167 589.347C567.588 590.044 568.204 590.606 568.94 590.967C579.237 596.052 590.325 598.563 602.205 598.499C610.37 598.478 614.601 598.447 614.896 598.404C618.483 597.814 621.226 595.957 623.125 592.834C624.37 590.766 624.971 587.77 624.929 583.845C624.043 525.799 623.6 484.18 623.6 458.986C623.6 321.562 623.6 184.148 623.6 46.745C623.6 43.1158 624.455 43.0525 626.164 46.5551L675.126 146.601C675.35 147.062 675.422 147.574 675.328 148.032C675.234 148.49 674.981 148.861 674.62 149.069L662.118 155.874C660.753 156.62 659.61 157.629 658.813 158.795C658.015 159.96 657.594 161.237 657.592 162.489C658.162 301.032 657.698 438.161 656.2 573.876C656.052 587.021 655.007 596.305 653.066 601.728C649.437 611.877 642.875 619.209 633.38 623.724C625.045 627.67 614.084 629.189 600.495 628.282C589.08 627.544 578.024 625.265 567.326 621.446C567.076 621.36 566.809 621.334 566.548 621.37C566.286 621.405 566.037 621.501 565.821 621.649C565.605 621.797 565.428 621.993 565.305 622.222C565.181 622.451 565.115 622.705 565.111 622.965C563.718 671.643 562.389 719.592 561.123 766.814C561.102 767.299 561.112 767.795 561.155 768.302C561.534 774.421 561.039 774.906 559.667 769.758C559.562 769.357 559.498 768.945 559.477 768.523C558.654 736.092 557.821 703.651 556.977 671.199C556.974 670.998 556.929 670.799 556.844 670.617C556.758 670.434 556.636 670.272 556.483 670.14C556.33 670.008 556.152 669.911 555.959 669.853C555.765 669.796 555.562 669.78 555.363 669.807C552.177 670.229 549.444 671.569 547.165 673.826C546.455 674.518 546.035 675.505 545.994 676.58C545.762 684.239 545.73 691.888 545.899 699.526C546.342 718.537 541.954 736.314 532.733 752.857C500.049 811.451 451.519 850.56 387.143 870.183C386.694 870.321 386.297 870.591 386.003 870.958C385.71 871.325 385.533 871.772 385.497 872.24C384.294 888.677 386.911 903.901 393.346 917.911C398.811 929.791 408.306 937.176 421.831 940.066C435.209 942.915 447.468 941.712 458.609 936.458C464.369 933.736 473.779 926.678 486.84 915.284C502.94 901.253 517.826 886.029 531.499 869.613C543.504 855.223 552.461 845.475 558.369 840.369C591.117 812.116 629.867 795.13 674.62 789.412C674.797 789.392 674.966 789.326 675.109 789.219C675.253 789.113 675.365 788.971 675.436 788.807C675.507 788.643 675.533 788.464 675.512 788.286C675.491 788.109 675.423 787.941 675.316 787.798C654.786 760.6 652.117 732.558 667.309 703.672C675.728 687.679 689.907 676.802 709.846 671.041C724.447 666.821 738.574 667.254 752.226 672.339C764.822 677.044 775.689 684.978 784.825 696.14C801.979 717.134 804.596 742.254 792.674 771.498C791.64 774.03 792.252 774.537 794.51 773.018C808.921 763.48 818.68 751.422 823.786 736.842C826.487 729.182 827.637 716.29 827.236 698.165C826.519 665.439 826.16 622.374 826.16 568.97C826.16 431.546 826.16 294.111 826.16 156.665C826.16 152.593 827.067 152.393 828.882 156.064L882.624 264.655C883.055 265.533 883.131 266.541 882.835 267.464C882.539 268.387 881.895 269.152 881.041 269.593L862.336 279.088C861.688 279.423 861.145 279.925 860.765 280.539C860.386 281.153 860.185 281.855 860.184 282.569C860.184 371.168 860.268 459.25 860.437 546.815C860.5 576.355 859.888 631.215 858.601 711.395C858.158 738.952 848.864 761.835 830.718 780.044C811.327 799.477 787.568 809.911 759.442 811.346C759.421 811.346 747.468 811.209 723.582 810.934C715.607 810.829 707.641 810.702 699.687 810.554C689.833 810.365 681.857 810.576 675.759 811.187C638.56 814.901 604.821 827.487 574.543 848.946C568.128 853.503 561.366 859.549 554.255 867.081C548.051 873.707 541.88 880.353 535.74 887.021C519.767 904.407 500.323 921.361 477.409 937.882C462.934 948.348 447.31 952.758 430.535 951.112C414.182 949.487 401.586 942.873 392.745 931.268C387.533 924.452 383.872 915.569 381.762 904.618C379.948 895.144 379.336 885.396 379.927 875.374C379.949 874.944 379.869 874.515 379.691 874.122C379.514 873.73 379.245 873.386 378.907 873.119C378.569 872.853 378.171 872.671 377.749 872.59C377.326 872.508 376.89 872.53 376.477 872.652C355.525 879.003 334.435 882.052 313.208 881.799C289.07 881.503 269.32 876.903 253.96 867.999C234.801 856.88 221.656 839.757 214.524 816.631C207.624 794.265 205.409 769.547 207.877 742.475C207.962 741.589 208.236 740.861 208.7 740.291C210.219 738.477 210.81 739.68 210.473 743.899C208.721 764.873 210.884 785.087 216.961 804.541C221.94 820.429 228.861 833.321 237.723 843.217C248.294 855.012 261.25 862.967 276.589 867.081C290.03 870.711 307.258 870.995 328.274 867.936C345.449 865.425 362.393 861.247 379.104 855.403C379.689 855.199 380.218 854.847 380.643 854.378C381.068 853.909 381.376 853.337 381.541 852.712L399.803 787.355ZM552.704 615.211L532.765 601.19C528.376 598.088 527.5 598.816 530.138 603.374C538.134 617.152 545.657 631.268 552.704 645.721C553.21 646.776 553.791 647.61 554.445 648.222C557.04 650.648 557.842 649.255 556.85 644.044C555.584 637.292 555.204 629.569 555.711 620.876C555.769 619.831 555.523 618.762 554.997 617.77C554.47 616.778 553.681 615.897 552.704 615.211ZM765.36 739.88C765.36 735.067 764.412 730.301 762.571 725.854C760.729 721.408 758.029 717.367 754.626 713.964C751.222 710.561 747.182 707.861 742.735 706.019C738.289 704.177 733.523 703.229 728.71 703.229C718.989 703.229 709.667 707.091 702.794 713.964C695.92 720.837 692.059 730.16 692.059 739.88C692.059 749.6 695.92 758.923 702.794 765.796C709.667 772.669 718.989 776.531 728.71 776.531C733.523 776.531 738.289 775.583 742.735 773.741C747.182 771.899 751.222 769.199 754.626 765.796C758.029 762.393 760.729 758.352 762.571 753.906C764.412 749.459 765.36 744.693 765.36 739.88Z" fill="black"/>
<path d="M748.744 477.976C748.934 480.192 748.67 482.302 747.953 484.306L744.661 427.273C744.649 427.025 744.576 426.783 744.449 426.57C744.322 426.358 744.145 426.181 743.936 426.057C743.726 425.933 743.491 425.867 743.252 425.863C743.014 425.86 742.779 425.92 742.572 426.039C727.254 434.436 711.059 441.294 693.99 446.611C688.377 448.362 687.385 447.761 691.014 444.807C691.5 444.406 692.09 444.016 692.787 443.636C709.371 434.542 725.165 423.401 740.167 410.214C741.194 409.315 742.006 408.199 742.543 406.95C743.08 405.701 743.328 404.35 743.269 402.997L729.849 97.0685C729.765 95.3383 730.144 95.2328 730.988 96.752L782.863 189.486C783.047 189.814 783.162 190.176 783.201 190.55C783.241 190.925 783.203 191.303 783.09 191.662C782.977 192.02 782.792 192.352 782.546 192.637C782.3 192.921 781.999 193.153 781.66 193.316L764.696 201.608C763.508 202.192 762.499 203.085 761.775 204.193C761.051 205.302 760.639 206.584 760.581 207.907L752.574 391.16C752.32 396.625 753.787 397.142 756.973 392.711C761.341 386.592 765.339 379.334 768.968 370.936C771.943 364.015 772.809 356.176 771.564 347.42C770.867 342.63 771.859 338.379 774.539 334.665C776.86 331.437 780.236 329.19 784.667 327.924C792.305 325.729 798.276 327.618 802.581 333.589C805.492 337.64 806.569 342.957 805.809 349.541C803.741 367.898 796.05 383.839 782.736 397.364C774.106 406.141 764.094 413.948 752.7 420.785C752.222 421.068 751.822 421.467 751.535 421.948C751.247 422.428 751.082 422.975 751.054 423.538L748.744 477.976Z" fill="black"/>
<path d="M477.092 215.376C477.265 215.487 477.413 215.633 477.526 215.804C477.64 215.974 477.717 216.167 477.753 216.369C477.789 216.571 477.782 216.779 477.734 216.978C477.685 217.178 477.596 217.365 477.472 217.528L460.191 240.696C459.938 241.036 459.611 241.315 459.236 241.51C458.861 241.706 458.447 241.815 458.026 241.827C457.605 241.839 457.187 241.755 456.806 241.581C456.424 241.407 456.088 241.148 455.823 240.823C447.151 230.125 443.965 217.486 446.265 202.906C448.375 189.508 452.785 177.027 459.495 165.464C460.339 163.987 460.877 164.093 461.109 165.781C462.523 175.824 463.535 185.214 464.147 193.949C464.822 203.212 469.137 210.354 477.092 215.376Z" fill="black"/>
<path d="M334.635 266.016C334.812 266.139 334.962 266.296 335.078 266.478C335.193 266.66 335.27 266.863 335.305 267.076C335.341 267.288 335.333 267.505 335.284 267.715C335.234 267.924 335.143 268.121 335.015 268.295L317.639 292.317C317.448 292.574 317.201 292.783 316.918 292.931C316.634 293.078 316.32 293.159 316.001 293.168C315.681 293.178 315.364 293.114 315.072 292.983C314.78 292.852 314.522 292.657 314.316 292.412C305.032 281.651 301.582 268.865 303.967 254.052C306.077 240.97 310.349 228.648 316.785 217.085C318.156 214.617 319.011 214.785 319.349 217.592C320.572 227.382 321.437 236.107 321.944 243.766C322.577 253.156 326.807 260.572 334.635 266.016Z" fill="black"/>
<path d="M257.41 289.121C257.76 289.404 257.989 289.81 258.048 290.252C258.107 290.695 257.992 291.14 257.726 291.494L241.458 314.188C241.165 314.594 240.78 314.926 240.334 315.157C239.889 315.387 239.395 315.511 238.891 315.517C238.387 315.523 237.888 315.412 237.433 315.192C236.977 314.972 236.578 314.65 236.267 314.251C228.566 304.144 225.401 292.792 226.772 280.195C228.249 266.649 232.628 253.282 239.907 240.095C241.173 237.774 241.964 237.932 242.281 240.57C243.209 248.567 244.053 257.291 244.813 266.744C245.488 275.458 249.687 282.917 257.41 289.121Z" fill="black"/>
<path d="M692.375 245.19C693.62 258.083 695.224 270.004 697.186 280.955C698.178 286.504 701.67 290.999 707.662 294.438C707.842 294.54 708 294.677 708.126 294.841C708.251 295.004 708.34 295.189 708.388 295.383C708.436 295.578 708.441 295.778 708.403 295.97C708.366 296.162 708.286 296.341 708.169 296.495L691.236 319.441C690.924 319.864 690.512 320.201 690.034 320.424C689.557 320.647 689.028 320.749 688.494 320.721C687.959 320.693 687.435 320.536 686.964 320.264C686.494 319.991 686.092 319.611 685.792 319.157C675.875 303.943 673.618 287.654 679.019 270.289C681.91 261.005 685.75 252.502 690.54 244.779C691.574 243.112 692.186 243.249 692.375 245.19Z" fill="black"/>
<path d="M929.402 679.175C928.622 700.296 928.231 714.201 928.231 720.89C928.231 721.586 928.084 722.04 927.788 722.251C927.176 722.694 926.849 722.378 926.807 721.301L910.033 250.033C909.927 246.889 910.623 246.699 912.121 249.463L967.256 350.142C967.432 350.472 967.539 350.835 967.571 351.209C967.602 351.582 967.558 351.959 967.439 352.316C967.321 352.674 967.132 353.005 966.883 353.289C966.634 353.574 966.33 353.806 965.99 353.972L945.797 364.1C942.231 365.872 940.385 368.889 940.258 373.151C936.819 476.605 933.2 578.613 929.402 679.175Z" fill="black"/>
<path d="M337.041 319.378C337.651 319.669 338.338 319.752 338.996 319.615C339.654 319.477 340.246 319.127 340.681 318.618C348.572 309.461 358.151 303.849 369.419 301.781C369.913 301.687 370.423 301.722 370.901 301.881C371.378 302.041 371.808 302.32 372.149 302.693C372.491 303.066 372.733 303.521 372.853 304.014C372.973 304.508 372.968 305.024 372.837 305.515C369.187 318.935 366.697 331.827 365.368 344.192C364.671 350.606 363.026 355.375 360.43 358.498C354.902 365.165 348.351 366.547 340.776 362.644C337.463 360.956 333.127 356.915 327.767 350.522C319.517 340.71 310.866 332.017 301.814 324.442C301.48 324.159 301.22 323.798 301.058 323.391C300.897 322.983 300.838 322.542 300.888 322.107C300.939 321.671 301.096 321.255 301.345 320.895C301.595 320.535 301.93 320.242 302.321 320.043C313.926 314.114 325.499 313.892 337.041 319.378Z" fill="black"/>
<path d="M501.906 330.329C508.827 321.488 518.596 315.654 531.214 312.827C531.726 312.709 532.26 312.727 532.763 312.878C533.267 313.028 533.722 313.307 534.086 313.686C534.449 314.066 534.708 314.533 534.837 315.043C534.966 315.552 534.961 316.086 534.822 316.593C531.593 328.599 529.272 340.278 527.859 351.629C526.719 360.871 524.905 367.075 522.415 370.24C518.448 375.219 513.099 376.823 506.368 375.05C502.444 374.017 498.34 371.094 494.057 366.283C484.646 355.755 474.265 345.141 462.913 334.444C462.723 334.26 462.58 334.034 462.496 333.784C462.412 333.535 462.389 333.268 462.429 333.008C462.47 332.747 462.572 332.5 462.728 332.287C462.884 332.074 463.088 331.902 463.324 331.785C476.174 325.476 488.265 325.17 499.595 330.867C499.978 331.063 500.419 331.117 500.841 331.018C501.263 330.92 501.64 330.676 501.906 330.329Z" fill="black"/>
<path d="M199.142 393.091C204.269 396.214 207.107 400.265 207.656 405.245C209.787 424.192 205.419 441.779 194.553 458.005C187.041 469.209 178.717 478.557 169.581 486.047C150.717 501.513 130.039 513.983 107.547 523.457C106.661 523.837 106.196 523.774 106.154 523.267C106.145 523.075 106.214 522.862 106.353 522.65C106.492 522.438 106.697 522.236 106.945 522.065C128.003 507.337 145.98 489.497 160.877 468.545C168.726 457.488 173.685 446.39 175.753 435.249C176.702 430.1 176.586 424.519 175.404 418.506C173.885 410.741 173.548 405.477 174.392 402.713C176.354 396.15 181.26 392.268 189.109 391.065C192.696 390.517 196.04 391.192 199.142 393.091Z" fill="black"/>
<path d="M785.964 441.515C787.589 438.625 788.56 438.825 788.876 442.117C789.826 452.055 790.786 461.645 791.756 470.887C792.622 479.137 796.567 485.425 803.594 489.75C803.814 489.886 804.007 490.063 804.158 490.271C804.31 490.478 804.417 490.712 804.473 490.956C804.53 491.2 804.534 491.449 804.487 491.689C804.439 491.928 804.339 492.152 804.195 492.345L786.281 516.178C786.158 516.336 786.001 516.464 785.819 516.553C785.638 516.642 785.437 516.69 785.229 516.693C785.022 516.696 784.814 516.654 784.618 516.571C784.423 516.487 784.245 516.364 784.097 516.209C775.636 507.347 771.722 497.768 772.355 487.471C773.347 471.351 777.883 456.032 785.964 441.515Z" fill="black"/>
<path d="M536.024 506.746C536.245 506.872 536.435 507.044 536.584 507.251C536.732 507.457 536.835 507.694 536.886 507.945C536.937 508.196 536.934 508.455 536.878 508.707C536.823 508.959 536.715 509.196 536.563 509.405L519.978 532.034C519.64 532.494 519.201 532.87 518.697 533.134C518.193 533.398 517.639 533.543 517.078 533.555C516.518 533.567 515.967 533.447 515.47 533.205C514.973 532.963 514.544 532.605 514.218 532.161C511.074 527.857 508.647 523.331 506.938 518.583C505.377 514.258 504.649 509.268 504.754 503.613C505.071 486.817 509.755 471.499 518.807 457.657C519.925 455.927 520.569 456.096 520.738 458.163C521.624 469.367 523.037 480.487 524.979 491.522C526.139 498.106 529.821 503.18 536.024 506.746Z" fill="black"/>
<path d="M748.744 477.976C749.905 483.04 750.126 486.469 749.409 488.263C747.911 491.955 747.425 490.636 747.953 484.306C748.67 482.302 748.934 480.192 748.744 477.976Z" fill="black"/>
<path d="M318.051 578.687C315.118 585.797 309.389 588.709 300.865 587.422C289.851 585.776 284.808 579.625 285.736 568.97C286.179 563.758 288.5 559.749 292.699 556.943C296.413 554.432 300.548 553.504 305.106 554.158C310.972 554.981 315.593 558.146 318.969 563.653C319.054 563.79 319.173 563.904 319.314 563.982C319.455 564.061 319.614 564.102 319.776 564.102C319.937 564.102 320.096 564.061 320.238 563.982C320.379 563.904 320.498 563.79 320.583 563.653C325.837 555.487 332.652 552.544 341.029 554.822C345.903 556.131 349.427 558.642 351.6 562.355C353.288 565.246 353.995 568.453 353.72 571.977C353.467 574.973 352.265 577.864 350.112 580.649C341.799 591.368 331.776 590.587 320.045 578.307C319.906 578.159 319.733 578.049 319.54 577.987C319.348 577.924 319.142 577.911 318.944 577.949C318.745 577.987 318.559 578.074 318.403 578.203C318.247 578.332 318.126 578.498 318.051 578.687Z" fill="black"/>
<path d="M732.065 599.291C732.529 600.493 733.077 600.536 733.71 599.417C737.635 592.475 742.71 588.793 748.934 588.371C754.948 587.949 759.917 590.144 763.841 594.955C766.943 598.774 768.019 603.268 767.069 608.438C766.268 612.679 763.989 616.255 760.233 619.167C751.012 626.341 742.456 624.315 734.565 613.09C732.961 610.79 731.917 610.854 731.432 613.28C731.184 614.431 730.742 615.383 730.166 616.002C723.013 623.492 715.67 624.948 708.137 620.37C703.495 617.542 700.678 613.449 699.687 608.089C698.463 601.506 700.446 596.252 705.637 592.328C710.005 589.036 714.678 587.738 719.658 588.435C725.481 589.258 729.617 592.876 732.065 599.291Z" fill="black"/>
<path d="M218.765 615.464C225.559 604.682 235.582 599.47 248.832 599.829C249.136 599.838 249.433 599.918 249.7 600.062C249.967 600.206 250.196 600.409 250.368 600.656C250.541 600.902 250.652 601.185 250.694 601.482C250.735 601.778 250.704 602.079 250.605 602.361C246.954 613.227 244.57 623.904 243.452 634.391C242.46 643.78 241.521 649.509 240.635 651.576C237.575 658.708 231.942 661.926 223.734 661.23C219.24 660.871 214.946 658.634 210.852 654.52C205.514 649.182 200.503 643.527 195.819 637.556C190.649 630.993 184.794 625.623 178.253 621.446C177.983 621.278 177.761 621.045 177.609 620.766C177.456 620.487 177.378 620.173 177.381 619.853C177.384 619.534 177.469 619.218 177.627 618.938C177.785 618.657 178.011 618.42 178.284 618.249C189.657 611.349 201.843 610.822 214.84 616.667C215.524 616.977 216.299 617.026 217.021 616.804C217.743 616.583 218.362 616.107 218.765 615.464Z" fill="black"/>
<path d="M473.896 629.991C478.58 633.093 481.017 637.45 481.207 643.063C482.135 669.606 472.809 692.3 453.228 711.142C432.065 731.524 408 747.624 381.034 759.44C380.212 759.798 379.536 759.872 379.009 759.661C378.038 759.26 378.671 758.279 380.908 756.718C404.582 740.302 423.72 719.909 438.321 695.538C443.617 686.676 446.729 678.774 447.658 671.832C448.734 663.814 448.301 655.111 446.36 645.721C444.989 639.138 447.542 633.768 454.019 629.611C460.539 625.412 467.165 625.539 473.896 629.991Z" fill="black"/>
<path d="M157.206 695.538C157.423 695.686 157.609 695.875 157.753 696.092C157.897 696.31 157.996 696.552 158.043 696.804C158.091 697.056 158.086 697.312 158.029 697.557C157.972 697.802 157.864 698.03 157.712 698.229L139.608 722.061C139.487 722.221 139.332 722.351 139.153 722.443C138.974 722.534 138.777 722.585 138.574 722.591C138.372 722.597 138.169 722.558 137.981 722.478C137.794 722.397 137.625 722.276 137.488 722.124C127.929 711.574 124.226 699.02 126.378 684.461C128.299 671.442 132.571 659.236 139.197 647.842C141.117 644.529 142.225 644.782 142.52 648.601C143.111 655.986 143.765 664.268 144.482 673.447C145.2 682.878 149.441 690.242 157.206 695.538Z" fill="black"/>
<path d="M270.797 788.02C270.529 787.792 270.32 787.503 270.189 787.176C270.058 786.85 270.009 786.496 270.047 786.146C270.084 785.797 270.207 785.461 270.404 785.17C270.601 784.878 270.866 784.64 271.177 784.475C283.5 777.955 295.221 777.723 306.34 783.778C307.059 784.166 307.897 784.27 308.692 784.071C309.487 783.872 310.183 783.385 310.645 782.702C318.135 771.604 328.474 766.297 341.662 766.782C341.842 766.789 342.018 766.837 342.176 766.922C342.335 767.008 342.471 767.129 342.576 767.276C342.68 767.423 342.749 767.592 342.777 767.77C342.805 767.948 342.792 768.13 342.738 768.302C339.109 779.548 336.682 791.005 335.458 802.674C334.551 811.303 333.528 816.811 332.388 819.195C329.329 825.609 323.917 828.679 316.152 828.405C312.058 828.257 308.239 826.559 304.695 823.309C301.466 820.376 298.481 817.18 295.738 813.719C288.627 804.773 280.314 796.206 270.797 788.02Z" fill="black"/>
<path d="M400.594 789.729C400.763 788.695 400.499 787.904 399.803 787.355C404.571 771.657 404.835 772.448 400.594 789.729Z" fill="black"/>
<path d="M182.494 844.895C182.852 845.163 183.093 845.559 183.164 845.997C183.235 846.435 183.131 846.88 182.874 847.237L165.941 871.038C165.705 871.37 165.393 871.641 165.031 871.828C164.669 872.016 164.267 872.116 163.857 872.119C163.447 872.122 163.041 872.028 162.672 871.846C162.303 871.664 161.981 871.398 161.732 871.069C157.174 865.14 154.093 858.662 152.49 851.636C151.139 845.644 151.15 838.66 152.521 830.684C154.505 819.311 158.292 808.381 163.884 797.894C165.994 793.906 167.291 794.16 167.777 798.654C168.642 806.672 169.328 814.521 169.834 822.202C170.446 831.359 174.666 838.923 182.494 844.895Z" fill="black"/>
<path d="M754.568 883.381C754.752 883.513 754.908 883.68 755.027 883.873C755.146 884.066 755.226 884.28 755.261 884.504C755.296 884.728 755.287 884.957 755.233 885.177C755.179 885.397 755.082 885.604 754.948 885.787L737.888 909.492C737.657 909.814 737.356 910.079 737.007 910.268C736.659 910.457 736.273 910.564 735.877 910.582C735.481 910.601 735.086 910.529 734.722 910.373C734.358 910.217 734.034 909.981 733.774 909.682C725.545 900.251 722.126 888.762 723.519 875.215C725.038 860.361 729.543 846.741 737.034 834.355C738.089 832.625 738.743 832.762 738.996 834.767C740.262 844.283 741.233 853.546 741.908 862.555C742.52 870.869 746.74 877.811 754.568 883.381Z" fill="black"/>
<path d="M660.124 891.927C660.924 892.34 661.834 892.486 662.723 892.343C663.612 892.201 664.431 891.778 665.061 891.135C675.295 880.754 685.317 875.69 695.129 875.943C695.46 875.951 695.785 876.034 696.079 876.186C696.374 876.338 696.629 876.554 696.828 876.819C697.026 877.085 697.161 877.392 697.223 877.717C697.285 878.042 697.273 878.377 697.186 878.697C693.515 891.927 691.036 904.703 689.748 917.025C689.073 923.461 687.449 928.271 684.874 931.457C679.198 938.484 672.425 939.919 664.555 935.762C661.285 934.032 656.822 929.833 651.167 923.165C643.698 914.303 635.099 905.441 625.372 896.579C625.163 896.391 625.003 896.154 624.907 895.889C624.811 895.624 624.782 895.339 624.823 895.06C624.864 894.782 624.973 894.517 625.14 894.291C625.308 894.064 625.529 893.883 625.784 893.762C638.697 887.453 650.144 886.842 660.124 891.927Z" fill="black"/>
<path d="M590.431 942.282C590.612 942.428 590.729 942.64 590.759 942.875C590.788 943.11 590.727 943.351 590.589 943.548L572.865 967.57C572.657 967.85 572.388 968.078 572.078 968.237C571.768 968.396 571.425 968.482 571.077 968.489C570.728 968.495 570.383 968.421 570.067 968.272C569.752 968.124 569.475 967.906 569.257 967.633C559.973 956.113 556.607 942.946 559.161 928.134C561.397 915.284 565.807 903.226 572.39 891.958C573.635 889.827 574.374 889.985 574.606 892.433C575.619 902.92 576.927 913.575 578.53 924.399C579.501 930.751 583.468 936.711 590.431 942.282Z" fill="black"/>
<path d="M340.902 949.625C341.078 949.745 341.227 949.899 341.342 950.078C341.457 950.257 341.534 950.458 341.57 950.667C341.605 950.877 341.598 951.092 341.549 951.299C341.499 951.506 341.408 951.701 341.282 951.872L323.463 976.306C323.316 976.503 323.127 976.665 322.909 976.779C322.691 976.894 322.45 976.958 322.204 976.967C321.958 976.976 321.713 976.93 321.487 976.832C321.262 976.734 321.061 976.587 320.899 976.4C313.008 967.264 309.389 956.482 310.043 944.054C310.887 928.335 315.329 913.839 323.368 900.567C324.993 897.887 325.9 898.109 326.09 901.232C326.765 912.077 328.116 922.806 330.141 933.42C331.428 940.214 335.015 945.616 340.902 949.625Z" fill="black"/>
</g>
<defs>
<clipPath id="clip0_1_2">
<rect width="1024" height="1024" fill="white"/>
</clipPath>
</defs>
</svg>
